
<svg width="200" height="60" viewBox="0 0 200 60" fill="none" xmlns="http://www.w3.org/2000/svg">
  <path d="M37.6 10H10C6.7 10 4 12.7 4 16V44C4 47.3 6.7 50 10 50H37.6C40.9 50 43.6 47.3 43.6 44V16C43.6 12.7 40.9 10 37.6 10Z" fill="#014F9E"/>
  <path d="M20.8 41.2V18.7H25.6L32.2 32.3L38.8 18.7H43.6V41.2H39.2V26.1L33.1 38.7H31.2L25.2 26.1V41.2H20.8Z" fill="white"/>
  <path d="M57 18.7H52.2L45.7 41.2H50.5L51.9 36.5H61.3L62.7 41.2H67.5L61 18.7H57ZM53.2 32.1L56.6 22.7L60 32.1H53.2Z" fill="#014F9E"/>
  <path d="M75.1 41.2V22.9H68.3V18.7H86.3V22.9H79.5V41.2H75.1Z" fill="#014F9E"/>
  <path d="M100.9 41.2V32.1H91.5V18.7H87.1V41.2H100.9Z" fill="#014F9E"/>
  <path d="M107.7 41.2V18.7H103.3V41.2H107.7Z" fill="#014F9E"/>
  <path d="M118.4 41.2V22.9H111.6V18.7H129.6V22.9H122.8V41.2H118.4Z" fill="#014F9E"/>
  <path d="M148.4 41.2V18.7H143.1L136.6 30.4L130.1 18.7H124.8V41.2H129.2V28.1L134.8 38H138.3L143.9 28.1V41.2H148.4Z" fill="#014F9E"/>
  <path d="M162.9 18.7H158L151.5 41.2H156.3L157.7 36.5H167.1L168.5 41.2H173.3L166.9 18.7H162.9ZM159 32.1L162.4 22.7L165.8 32.1H159Z" fill="#014F9E"/>
  <path d="M179.4 41.2V22.9H172.6V18.7H190.6V22.9H183.8V41.2H179.4Z" fill="#014F9E"/>
</svg>
